<svg width="203" height="54" viewBox="0 0 203 54" fill="none" xmlns="http://www.w3.org/2000/svg">
<path d="M80.916 18.0898H88.7031V44H83.6582V26.4746C83.6582 25.9707 83.6641 25.2676 83.6758 24.3652C83.6875 23.4512 83.6934 22.748 83.6934 22.2559L78.7891 44H73.5332L68.6641 22.2559C68.6641 22.748 68.6699 23.4512 68.6816 24.3652C68.6934 25.2676 68.6992 25.9707 68.6992 26.4746V44H63.6543V18.0898H71.5293L76.2402 38.4629L80.916 18.0898ZM94.0996 47.6738L94.7324 47.709C95.2246 47.7324 95.6934 47.7148 96.1387 47.6562C96.584 47.5977 96.959 47.4629 97.2637 47.252C97.5566 47.0527 97.8262 46.6367 98.0723 46.0039C98.3301 45.3711 98.4355 44.9844 98.3887 44.8438L91.3574 24.8398H96.9297L101.113 38.9727L105.068 24.8398H110.395L103.82 43.6836C102.555 47.3164 101.553 49.5664 100.814 50.4336C100.076 51.3125 98.5996 51.752 96.3848 51.752C95.9395 51.752 95.582 51.7461 95.3125 51.7344C95.043 51.7344 94.6387 51.7168 94.0996 51.6816V47.6738ZM128.359 26.334C128.359 24.9863 128.002 24.0254 127.287 23.4512C126.584 22.877 125.594 22.5898 124.316 22.5898H119.271V30.2188H124.316C125.594 30.2188 126.584 29.9082 127.287 29.2871C128.002 28.666 128.359 27.6816 128.359 26.334ZM133.721 26.2988C133.721 29.3574 132.947 31.5195 131.4 32.7852C129.854 34.0508 127.645 34.6836 124.773 34.6836H119.271V44H113.893V18.0898H125.178C127.779 18.0898 129.854 18.7578 131.4 20.0938C132.947 21.4297 133.721 23.498 133.721 26.2988ZM144.936 28.4609C143.775 28.4609 142.873 28.8242 142.229 29.5508C141.596 30.2773 141.197 31.2617 141.033 32.5039H148.82C148.738 31.1797 148.334 30.1777 147.607 29.498C146.893 28.8066 146.002 28.4609 144.936 28.4609ZM144.936 24.3301C146.529 24.3301 147.965 24.6289 149.242 25.2266C150.52 25.8242 151.574 26.7676 152.406 28.0566C153.156 29.1934 153.643 30.5117 153.865 32.0117C153.994 32.8906 154.047 34.1562 154.023 35.8086H140.91C140.98 37.7305 141.584 39.0781 142.721 39.8516C143.412 40.332 144.244 40.5723 145.217 40.5723C146.248 40.5723 147.086 40.2793 147.73 39.6934C148.082 39.377 148.393 38.9375 148.662 38.375H153.777C153.648 39.5117 153.057 40.666 152.002 41.8379C150.361 43.7012 148.064 44.6328 145.111 44.6328C142.674 44.6328 140.523 43.8477 138.66 42.2773C136.797 40.707 135.865 38.1523 135.865 34.6133C135.865 31.2969 136.703 28.7539 138.379 26.9844C140.066 25.2148 142.252 24.3301 144.936 24.3301ZM167.822 24.3828C167.916 24.3828 167.992 24.3887 168.051 24.4004C168.121 24.4004 168.268 24.4062 168.49 24.418V29.5508C168.174 29.5156 167.893 29.4922 167.646 29.4805C167.4 29.4688 167.201 29.4629 167.049 29.4629C165.033 29.4629 163.68 30.1191 162.988 31.4316C162.602 32.1699 162.408 33.3066 162.408 34.8418V44H157.363V24.8398H162.145V28.1797C162.918 26.9023 163.592 26.0293 164.166 25.5605C165.104 24.7754 166.322 24.3828 167.822 24.3828ZM178.51 17.8262C178.826 17.8262 179.113 17.8379 179.371 17.8613C179.629 17.873 179.98 17.8965 180.426 17.9316V22.0098C180.145 21.9746 179.67 21.9512 179.002 21.9395C178.346 21.916 177.889 22.0625 177.631 22.3789C177.385 22.6836 177.262 23.0234 177.262 23.3984C177.262 23.7734 177.262 24.3125 177.262 25.0156H180.549V28.5488H177.262V44H172.27V28.5488H169.475V25.0156H172.217V23.7852C172.217 21.7344 172.562 20.3223 173.254 19.5488C173.98 18.4004 175.732 17.8262 178.51 17.8262Z" fill="white"/>
<path d="M31.5 54L0 0L31.5 40.5L57.5 30L31.5 54Z" fill="#E0A606"/>
</svg>
